<svg xmlns="http://www.w3.org/2000/svg" id="Layer_1" data-name="Layer 1" viewBox="0 0 64 64"><defs><style>.cls-1{fill:#b48c56;}</style></defs><title>iocns</title><path class="cls-1" d="M-.36,38.83A31.83,31.83,0,0,0,0,34.67,80.81,80.81,0,0,1,2.38,20.36a20.77,20.77,0,0,1,1.86-4.8c1-1.73,2.15-2.78,3.6-2.14.39.17.39-.32.47-.72A42.88,42.88,0,0,1,11,3.47,6.41,6.41,0,0,1,13.58.25C15-.44,16.16.34,17.21,2a25.84,25.84,0,0,1,2.92,7.85,113.42,113.42,0,0,1,2.63,19.42c.17,2.85.27,5.72.26,8.59,0,7.07-2.94,13.22-6.88,14.5-.46.15-.65.4-.62,1.3.05,2,0,4.05,0,6.07,0,.57.08.76.41.76q4.47,0,8.94,0c.34,0,.41-.21.41-.76,0-2.91,0-5.82,0-8.72,0-1.23-.34-1.85-1-2.1a1.77,1.77,0,0,1-1.08-2.06c.12-1.11.65-1.62,1.46-1.41,1.42.37,2.48,2.29,2.64,4.86,0,.56.12.8.44.72h.12c1.93,0,1.94,0,1.75-3.46,0-.44-.13-.49-.33-.58-1.27-.56-1.81-1.79-1.82-4.09,0-1,0-2.06,0-3.09,0-2.38.86-3.84,2.2-3.85s2.5,0,3.75,0c.39,0,.51-.19.49-.87a16.83,16.83,0,0,0,0-2.95c-.23-1-1-.62-1.5-.91C28.45,29,26,22.44,26.4,15.27,26.78,8.49,29.91,2.87,33.79,2c4.53-1,8.75,4.61,9.45,12.62S40.9,30.1,36.46,31.55c-.5.16-.67.48-.61,1.34s-.23,2.27.14,2.84,1,.17,1.56.17h8.81c1.51,0,2.3,1.4,2.3,4.09,0,1.07,0,2.14,0,3.2,0,2-.61,3.34-1.68,3.68-.43.14-.47.47-.46,1.07q0,1.22,0,2.43c0,.5.1.66.36.61a4.17,4.17,0,0,1,.5,0c.42,0,.88.2,1.24-.06s.22-1.28.37-1.94a5.38,5.38,0,0,1,1.49-3c.42-.34.5-.8.51-1.52a151.25,151.25,0,0,1,1.52-19.84,40.68,40.68,0,0,1,1.36-6.36,12.65,12.65,0,0,1,.6-1.54c1.07-2.17,2.41-2.19,3.47,0a26.47,26.47,0,0,1,1.94,7.55A158,158,0,0,1,61.5,47c0,4.26-1.5,7.82-3.82,9-.34.18-.48.39-.45,1,0,.84,0,1.69,0,2.53,0,.69.1.87.48.86,1.61,0,3.21,0,4.82,0,.74,0,1.23,1,1.09,2.09-.11.8-.41,1.28-.86,1.41a1.9,1.9,0,0,1-.63,0q-30.48,0-61,0A1.49,1.49,0,0,1-.36,62.89V61.57C0,60.68.41,60.4,1,60.42c1.52.06,3.05,0,4.57,0,.38,0,.51-.17.48-.86s0-1.55,0-2.31-.13-1-.55-1.21C2.67,54.91.84,51.8-.07,47a4.76,4.76,0,0,0-.29-1.5ZM15.53,48.91c2.86-.86,4.93-4.54,5.39-9.43a53.57,53.57,0,0,0,0-6.94,119.93,119.93,0,0,0-2-18.55A33.47,33.47,0,0,0,16.27,5.3C15.09,3,14,3,12.84,5.24a23.65,23.65,0,0,0-1.95,5.6,116.62,116.62,0,0,0-2.81,27c0,5.31,2.13,9.78,4.9,10.9.41.17.59.12.56-.76,0-1.43,0-2.87,0-4.3s.42-2.19,1-2.17,1,.83,1,2.14C15.54,45.4,15.53,47.13,15.53,48.91ZM41.32,16.68c0-.46,0-1.13-.1-1.77C40.66,9.38,38,5.42,34.79,5.46S29,9.56,28.43,15.3c-.49,5.22,1.37,10.57,4.3,12.4,1.06.65,1.06.65,1.12-1.3a.45.45,0,0,0,0-.11c0-1,.42-1.69.94-1.74s.94.6,1,1.56a5.47,5.47,0,0,1,0,1c-.07.93.14,1.1.61.88C39.28,26.71,41.32,22.06,41.32,16.68ZM57.23,52.5c1.38-.77,2.28-2.88,2.26-5.44A153,153,0,0,0,58,25.56a31.21,31.21,0,0,0-1.34-6c-.38-1.05-.48-1.05-.85-.08a18,18,0,0,0-.81,3A136.25,136.25,0,0,0,53,47.3a7.18,7.18,0,0,0,1.31,4.43c.26.34.58.89.87.66s.06-.92.08-1.42c0-1.14.41-1.85,1-1.86s1,.71,1,1.85C57.25,51.46,57.23,52,57.23,52.5ZM10.42,50.78,10,50.29C7.4,47.21,6.05,42.9,6.06,37.39a137.4,137.4,0,0,1,1.31-19.1c.06-.43.36-1,0-1.39s-.65-.11-1,.14a4.49,4.49,0,0,0-1,1.45,17.81,17.81,0,0,0-1.21,3.32A80.6,80.6,0,0,0,1.69,44C1.74,47.83,3,50.59,5,52.15c1,.73,1,.7,1-1.07a4.93,4.93,0,0,1,0-.55c.14-1,.49-1.46,1-1.4s.87.64.92,1.62A9.77,9.77,0,0,1,8,52c0,.67.13.73.44.57A5.21,5.21,0,0,0,10.42,50.78Zm32,3.73c-2,0-4,0-6.06,0-.38,0-.5.16-.48.85,0,1.46,0,2.94,0,4.41,0,.52.09.69.39.69q6.09,0,12.17,0c.31,0,.4-.17.39-.7,0-1.46,0-2.94,0-4.41,0-.68-.11-.85-.49-.84C46.34,54.53,44.37,54.51,42.39,54.51ZM38.08,39.44c-2.36,0-4.71,0-7.06,0-.52,0-1.18-.42-1.5.19s0,1.76-.1,2.66.11,1.18.64,1.17c4,0,8,0,12,0,1.38,0,2.75,0,4.13,0,.38,0,.52-.16.49-.85a18.22,18.22,0,0,1,0-2.09c0-.83-.09-1.12-.6-1.11C43.41,39.46,40.74,39.44,38.08,39.44Zm-7.5,15.07c-1,0-1.92,0-2.87,0-.25,0-.44,0-.43.61,0,1.57,0,3.15,0,4.73,0,.52.14.6.38.59,1.93,0,3.87,0,5.8,0,.36,0,.4-.27.4-.79,0-1.43,0-2.87,0-4.3,0-.66-.08-.89-.48-.87C32.45,54.55,31.51,54.51,30.58,54.51ZM40.2,51c.87,0,1.75,0,2.62,0,.55,0,1.31.43,1.6-.18a11.11,11.11,0,0,0,.11-2.86c0-.78-.1-1-.54-1-2.12,0-4.24,0-6.36,0-.58,0-1.36-.45-1.67.19s-.06,2-.11,3c0,.69.1.86.48.85C37.62,51,38.91,51,40.2,51ZM10.79,60.44c.75,0,1.5,0,2.25,0,.38,0,.51-.13.5-.84,0-1.94,0-3.9,0-5.84,0-.42.2-1.07-.16-1.24s-.79-.55-1.2.22a7.92,7.92,0,0,1-2.61,2.9c-.5.33-1.23.12-1.45.92A15.61,15.61,0,0,0,8,59.5c0,.82.15,1,.57,1C9.34,60.4,10.06,60.44,10.79,60.44ZM51.11,49.62a2.29,2.29,0,0,0-.3,1.31c0,3,0,5.89,0,8.83,0,.54.1.7.39.69,1.21,0,2.42,0,3.63,0,.33,0,.43-.19.42-.76,0-.84,0-1.69,0-2.54,0-.65-.08-.95-.47-1.13A6.18,6.18,0,0,1,52,52.65,18.55,18.55,0,0,1,51.11,49.62ZM32.74,47c-1.17,0-1.17,0-1.17,2v.11c0,1.86,0,1.86,1.08,1.86s1.21,0,1.21-2.08C33.86,47,33.86,47,32.74,47Z"></path></svg>